<?xml version="1.0" encoding="UTF-8"?> <svg xmlns="http://www.w3.org/2000/svg" width="28" height="34" viewBox="0 0 28 34" fill="none"> <path d="M24 7.00001H20.6666C20.6666 3.31668 17.6833 0.333344 14 0.333344C10.3166 0.333344 7.33329 3.31668 7.33329 7.00001H3.99996C2.16663 7.00001 0.666626 8.50001 0.666626 10.3333V30.3333C0.666626 32.1667 2.16663 33.6667 3.99996 33.6667H24C25.8333 33.6667 27.3333 32.1667 27.3333 30.3333V10.3333C27.3333 8.50001 25.8333 7.00001 24 7.00001ZM14 3.66668C15.8333 3.66668 17.3333 5.16668 17.3333 7.00001H10.6666C10.6666 5.16668 12.1666 3.66668 14 3.66668ZM24 30.3333H3.99996V10.3333H7.33329V13.6667C7.33329 14.5833 8.08329 15.3333 8.99996 15.3333C9.91663 15.3333 10.6666 14.5833 10.6666 13.6667V10.3333H17.3333V13.6667C17.3333 14.5833 18.0833 15.3333 19 15.3333C19.9166 15.3333 20.6666 14.5833 20.6666 13.6667V10.3333H24V30.3333Z" fill="#126AB4"></path> </svg> 