<?xml version="1.0" encoding="UTF-8"?> <svg xmlns="http://www.w3.org/2000/svg" width="314" height="105" viewBox="0 0 314 105" fill="none"> <path d="M22.4722 79.7502C21.2733 78.4632 19.859 77.4332 18.3043 76.7147C16.6851 75.9662 14.9403 75.5851 13.1787 75.5951C11.4207 75.5867 9.67974 75.9678 8.06381 76.7147C6.9852 77.2167 5.971 77.8665 5.04624 78.6479V68.9702C5.05201 68.608 4.98685 68.2486 4.85501 67.9155C4.72317 67.5824 4.52762 67.283 4.28115 67.037C4.04689 66.7906 3.76989 66.5966 3.46601 66.4659C3.16212 66.3351 2.83732 66.2704 2.5102 66.2752C2.18307 66.2704 1.85827 66.3351 1.55438 66.4659C1.2505 66.5966 0.973501 66.7906 0.739245 67.037C0.497621 67.2856 0.307056 67.5861 0.179872 67.9191C0.0526887 68.2521 -0.00828189 68.6102 0.000902982 68.9702V89.7799C-0.00690545 91.6761 0.346377 93.5539 1.03886 95.2968C1.70474 96.9833 2.6657 98.5155 3.86917 99.8096C5.0781 101.097 6.50116 102.127 8.06381 102.845C9.67974 103.592 11.4207 103.973 13.1787 103.965C14.9405 103.976 16.6854 103.595 18.3043 102.845C21.4396 101.395 23.9324 98.6921 25.2597 95.3026C25.9447 93.5521 26.2976 91.6713 26.2976 89.7712C26.2976 87.8712 25.9447 85.9904 25.2597 84.2399C24.6017 82.5669 23.6558 81.0435 22.4722 79.7502ZM20.6584 93.1789C20.2549 94.2136 19.6719 95.1557 18.941 95.9547C17.7862 97.1836 16.3206 98.0172 14.7281 98.3509C13.1357 98.6846 11.4873 98.5034 9.98992 97.8302C9.02323 97.3931 8.1453 96.7559 7.40573 95.9547C6.67367 95.1521 6.08751 94.2086 5.67758 93.1732C5.25533 92.1083 5.04044 90.9612 5.04624 89.803C5.04008 88.6528 5.24651 87.5128 5.65347 86.4496C6.06042 85.3864 6.65975 84.4214 7.41643 83.6109C8.16318 82.8193 9.04174 82.1869 10.006 81.7469C12.0426 80.8373 14.3308 80.8373 16.3675 81.7469C17.3278 82.1852 18.2014 82.818 18.941 83.6109C19.6725 84.406 20.2539 85.3467 20.6531 86.3809C21.0696 87.4655 21.2807 88.629 21.2737 89.803C21.2814 90.9615 21.0722 92.1098 20.6584 93.1789Z" fill="#126AB4"></path> <path d="M65.2747 86.4789C65.6657 85.4566 66.2239 84.5184 66.9226 83.7089C67.6195 82.9042 68.4509 82.2484 69.373 81.7757C70.3098 81.2961 71.3322 81.042 72.3692 81.0313C73.3563 81.0109 74.3392 81.1749 75.2744 81.516C76.2312 81.8803 77.1127 82.4429 77.8693 83.1723C78.0869 83.3492 78.3134 83.5243 78.5488 83.6974C78.8283 83.9078 79.1424 84.0586 79.4744 84.1418C79.8266 84.2275 80.1922 84.2275 80.5444 84.1418C80.9783 84.0246 81.3765 83.7879 81.7001 83.455C81.9713 83.2088 82.1862 82.8986 82.3282 82.5483C82.4702 82.198 82.5354 81.8171 82.5187 81.4352C82.4897 80.6412 82.1795 79.8894 81.652 79.3346C80.5171 78.0798 79.1397 77.1104 77.6178 76.4954C76.0513 75.8507 74.3883 75.522 72.7116 75.5259C70.9498 75.5147 69.2049 75.8958 67.586 76.6454C66.0294 77.3665 64.6121 78.3962 63.4074 79.6809C62.2039 80.9751 61.243 82.5073 60.5771 84.1937C59.8829 85.9462 59.5297 87.8337 59.5391 89.7395V89.9415C59.5265 91.8345 59.88 93.7095 60.5771 95.4468C61.6034 97.9943 63.3001 100.161 65.4571 101.678C67.6141 103.195 70.1365 103.996 72.7116 103.982C74.3843 103.985 76.0434 103.659 77.6071 103.018C79.1352 102.406 80.5185 101.437 81.6573 100.179C82.182 99.6292 82.4921 98.8839 82.5241 98.0957C82.5409 97.716 82.4763 97.3373 82.3352 96.9889C82.1942 96.6406 81.9805 96.3321 81.7108 96.0874C81.3858 95.7522 80.9858 95.5136 80.5498 95.3949C80.1975 95.3099 79.8321 95.3099 79.4797 95.3949C79.1562 95.4773 78.8484 95.6198 78.5702 95.8162C78.3294 95.9835 78.0994 96.1567 77.8479 96.3933C77.0996 97.12 76.2248 97.6791 75.2744 98.038C74.3421 98.3742 73.3626 98.5324 72.3799 98.5054C71.3296 98.496 70.294 98.2379 69.3463 97.7494C68.425 97.2752 67.5939 96.6196 66.8958 95.8162C66.2108 95.0152 65.6669 94.0863 65.2907 93.075C64.9047 92.0606 64.7065 90.9745 64.7075 89.878V89.7337C64.6952 88.619 64.888 87.5128 65.2747 86.4789Z" fill="#126AB4"></path> <path d="M134.192 78.3363C134.203 77.9687 134.143 77.6026 134.015 77.2616C133.887 76.9206 133.695 76.6122 133.45 76.3563C133.205 76.1003 132.913 75.9024 132.593 75.7753C132.273 75.6482 131.932 75.5947 131.592 75.6182H131.431C129.632 75.614 127.852 76.0068 126.199 76.7724C124.982 77.3316 123.846 78.0738 122.823 78.9769V78.3594C122.829 78.002 122.77 77.6467 122.648 77.314C122.527 76.9813 122.346 76.6776 122.116 76.4204C121.887 76.1577 121.609 75.95 121.3 75.8108C120.991 75.6716 120.659 75.604 120.324 75.6125C119.989 75.6094 119.656 75.6783 119.346 75.8153C119.036 75.9522 118.754 76.1545 118.517 76.4101C118.28 76.6658 118.092 76.9699 117.965 77.3046C117.838 77.6392 117.774 77.9978 117.777 78.3594V101.57C117.779 102.109 117.929 102.636 118.209 103.083C118.488 103.53 118.884 103.878 119.346 104.083C119.809 104.288 120.317 104.341 120.807 104.235C121.297 104.128 121.747 103.868 122.1 103.486C122.333 103.235 122.517 102.936 122.641 102.607C122.765 102.277 122.827 101.925 122.823 101.57V90.4205C122.817 89.1633 123.051 87.9183 123.507 86.7617C123.946 85.6464 124.578 84.6318 125.369 83.7724C126.159 82.9249 127.088 82.2438 128.109 81.7642C129.156 81.2708 130.288 81.0191 131.431 81.0255H131.592C132.265 81.0373 132.917 80.7686 133.411 80.2753C133.663 80.0321 133.863 79.7328 133.998 79.3981C134.133 79.0634 134.199 78.7012 134.192 78.3363Z" fill="#126AB4"></path> <path d="M181.67 86.4674C182.07 85.4214 182.641 84.4615 183.356 83.6339C184.068 82.8124 184.918 82.1429 185.86 81.6603C186.82 81.1696 187.868 80.9097 188.931 80.8986C189.94 80.871 190.946 81.0391 191.9 81.3949C192.886 81.7663 193.795 82.3428 194.575 83.0915C194.789 83.2646 195.014 83.4435 195.266 83.6282C195.543 83.8379 195.856 83.9887 196.186 84.0725C196.538 84.1583 196.904 84.1583 197.256 84.0725C197.689 83.9564 198.085 83.7196 198.406 83.3858C198.676 83.1411 198.89 82.8326 199.031 82.4843C199.172 82.1359 199.236 81.7572 199.219 81.3775C199.19 80.5854 198.879 79.8357 198.353 79.2827C197.206 78.0084 195.812 77.0232 194.27 76.3973C192.685 75.7449 191.002 75.4124 189.305 75.4163C187.52 75.411 185.753 75.8039 184.116 76.5704C182.539 77.299 181.104 78.3404 179.883 79.6405C178.666 80.9496 177.694 82.4994 177.021 84.2053C176.312 85.9764 175.948 87.8855 175.951 89.8145V90.0165C175.945 91.9328 176.309 93.8295 177.021 95.5854C178.059 98.171 179.779 100.37 181.967 101.909C184.155 103.449 186.715 104.26 189.327 104.242C191.02 104.243 192.699 103.911 194.281 103.261C195.829 102.639 197.229 101.653 198.379 100.375C198.901 99.8263 199.209 99.0832 199.241 98.2977C199.257 97.9212 199.193 97.5457 199.053 97.2004C198.912 96.8551 198.7 96.5493 198.433 96.3067C198.112 95.9736 197.715 95.7369 197.283 95.62C196.931 95.5326 196.565 95.5326 196.213 95.62C195.889 95.7019 195.581 95.8445 195.303 96.0413C195.052 96.2144 194.816 96.3991 194.575 96.6184C193.81 97.362 192.915 97.9348 191.943 98.3034C190.988 98.6456 189.985 98.8076 188.979 98.7824C187.903 98.7734 186.842 98.5094 185.87 98.0091C183.976 97.0364 182.49 95.3307 181.708 93.2309C181.312 92.1928 181.109 91.0812 181.109 89.9588V89.8145C181.088 88.6696 181.279 87.5317 181.67 86.4674Z" fill="#126AB4"></path> <path d="M223.804 79.6924C222.592 78.3891 221.161 77.3454 219.588 76.6166C217.949 75.8692 216.186 75.4841 214.406 75.4841C212.626 75.4841 210.864 75.8692 209.225 76.6166C207.644 77.343 206.205 78.3846 204.982 79.6866C203.765 80.9957 202.793 82.5456 202.119 84.2514C201.426 86.025 201.069 87.9302 201.069 89.8549C201.069 91.7796 201.426 93.6848 202.119 95.4584C203.475 98.9002 206.011 101.644 209.198 103.116C210.838 103.864 212.6 104.249 214.38 104.249C216.16 104.249 217.922 103.864 219.561 103.116C221.137 102.387 222.568 101.339 223.777 100.029C224.982 98.7123 225.948 97.1641 226.624 95.4642C227.317 93.6906 227.674 91.7853 227.674 89.8607C227.674 87.936 227.317 86.0307 226.624 84.2572C225.96 82.557 225.003 81.008 223.804 79.6924ZM222.691 89.8664C222.698 91.0552 222.482 92.233 222.055 93.3289C221.222 95.4773 219.647 97.1913 217.662 98.1072C216.633 98.577 215.527 98.8191 214.409 98.8191C213.292 98.8191 212.185 98.577 211.156 98.1072C210.171 97.6497 209.276 96.9936 208.518 96.174C207.769 95.3531 207.168 94.3882 206.747 93.3289C206.313 92.235 206.093 91.0563 206.1 89.8664C206.093 88.6653 206.313 87.4753 206.747 86.3693C207.581 84.2248 209.163 82.5192 211.151 81.6199C213.235 80.6891 215.577 80.6891 217.662 81.6199C218.644 82.0676 219.538 82.7141 220.294 83.5243C221.045 84.3387 221.641 85.3031 222.049 86.3635C222.479 87.473 222.697 88.6642 222.691 89.8664Z" fill="#126AB4"></path> <path d="M236.629 73.4138C236.812 72.9442 237.075 72.5156 237.405 72.1499C237.736 71.7867 238.128 71.4948 238.56 71.2901C238.928 71.1307 239.313 71.0184 239.705 70.9554C240.427 70.9017 241.104 70.5602 241.605 69.9974C241.982 69.5241 242.189 68.9197 242.188 68.295C242.197 67.9758 242.147 67.6577 242.039 67.3601C241.932 67.0626 241.769 66.7916 241.562 66.5638C241.259 66.2407 240.892 65.9964 240.489 65.8494C240.086 65.7024 239.657 65.6566 239.234 65.7154C238.172 65.8122 237.133 66.1071 236.163 66.5868C235.227 67.0483 234.379 67.6919 233.659 68.4854C232.933 69.2962 232.359 70.2505 231.969 71.2959C231.551 72.4271 231.333 73.6329 231.327 74.8507V101.691C231.323 102.051 231.386 102.409 231.512 102.742C231.639 103.076 231.825 103.379 232.061 103.634C232.298 103.889 232.579 104.09 232.888 104.226C233.197 104.362 233.529 104.43 233.863 104.426C234.188 104.429 234.51 104.361 234.81 104.225C235.11 104.089 235.381 103.889 235.607 103.636C235.845 103.383 236.032 103.081 236.158 102.748C236.285 102.414 236.346 102.057 236.34 101.697V81.516H239.085C239.416 81.5231 239.746 81.4583 240.053 81.3254C240.361 81.1926 240.641 80.9945 240.877 80.7427C241.35 80.2301 241.616 79.536 241.616 78.8124C241.616 78.0888 241.35 77.3947 240.877 76.882C240.641 76.6303 240.361 76.4322 240.053 76.2993C239.746 76.1665 239.416 76.1017 239.085 76.1087H236.34V74.9199C236.34 74.4019 236.438 73.8893 236.629 73.4138Z" fill="#126AB4"></path> <path d="M250.93 73.4138C251.114 72.9444 251.377 72.5159 251.706 72.15C252.037 71.7867 252.429 71.4948 252.862 71.2901C253.23 71.1306 253.614 71.0182 254.007 70.9554C254.728 70.9017 255.405 70.5602 255.906 69.9974C256.284 69.5241 256.491 68.9197 256.489 68.295C256.499 67.9758 256.448 67.6577 256.341 67.3602C256.233 67.0626 256.071 66.7916 255.863 66.5638C255.56 66.2411 255.193 65.997 254.79 65.85C254.387 65.703 253.958 65.657 253.536 65.7155C252.474 65.8086 251.435 66.0995 250.465 66.5753C249.529 67.0368 248.68 67.6804 247.961 68.4739C247.235 69.2847 246.661 70.2389 246.27 71.2843C245.852 72.4157 245.634 73.6214 245.628 74.8392V101.679C245.625 102.039 245.689 102.397 245.815 102.73C245.942 103.063 246.128 103.366 246.364 103.62C246.601 103.875 246.881 104.076 247.19 104.213C247.499 104.349 247.83 104.418 248.164 104.415C248.489 104.418 248.812 104.349 249.112 104.213C249.412 104.077 249.683 103.877 249.908 103.624C250.147 103.372 250.336 103.07 250.463 102.737C250.59 102.403 250.652 102.046 250.647 101.685V81.5161H253.391C253.723 81.5231 254.052 81.4583 254.36 81.3255C254.668 81.1926 254.948 80.9945 255.184 80.7428C255.657 80.2301 255.923 79.536 255.923 78.8124C255.923 78.0888 255.657 77.3947 255.184 76.8821C254.948 76.6303 254.668 76.4322 254.36 76.2993C254.052 76.1665 253.723 76.1017 253.391 76.1088H250.647V74.92C250.645 74.4023 250.742 73.8898 250.93 73.4138Z" fill="#126AB4"></path> <path d="M114.529 100.958C114.475 100.612 114.358 100.28 114.184 99.9834C114.011 99.6862 113.784 99.4291 113.518 99.2268L109.955 96.4337C110.067 96.1913 110.303 95.7354 110.404 95.4815C111.089 93.7289 111.442 91.8462 111.442 89.9444C111.442 88.0425 111.089 86.1599 110.404 84.4072C109.077 81.0178 106.584 78.3145 103.449 76.8647C101.829 76.126 100.088 75.7455 98.3287 75.7455C96.5697 75.7455 94.8287 76.126 93.2085 76.8647C91.6476 77.5836 90.2264 78.6134 89.0192 79.9002C87.8158 81.1945 86.8549 82.7266 86.1889 84.413C85.5024 86.1557 85.1446 88.0284 85.1364 89.9218C85.1281 91.8153 85.4695 93.6915 86.1407 95.4411C87.4888 98.8434 90.0039 101.552 93.1603 103.001C94.7805 103.74 96.5216 104.12 98.2806 104.12C100.04 104.12 101.781 103.74 103.401 103.001C104.644 102.423 105.798 101.644 106.825 100.693L110.533 103.578C110.938 103.894 111.421 104.073 111.921 104.093C112.421 104.113 112.915 103.972 113.341 103.69C113.767 103.407 114.106 102.994 114.314 102.504C114.523 102.014 114.592 101.468 114.513 100.935L114.529 100.958ZM104.059 96.0759C103.319 96.8782 102.444 97.5206 101.48 97.9687C100.475 98.4277 99.3938 98.6643 98.302 98.6643C97.2101 98.6643 96.1294 98.4277 95.1239 97.9687C94.1661 97.5187 93.2964 96.8764 92.5611 96.0759C91.8291 95.2732 91.243 94.3297 90.8329 93.2943C90.4107 92.2294 90.1958 91.0823 90.2016 89.9242C90.1943 88.7509 90.4092 87.5884 90.8329 86.5078C91.6463 84.4253 93.1824 82.7684 95.1132 81.8911C97.1498 80.9816 99.438 80.9816 101.475 81.8911C102.435 82.3298 103.308 82.9625 104.048 83.7551C104.781 84.5514 105.362 85.4943 105.76 86.5309C106.177 87.6154 106.388 88.7791 106.381 89.953C106.387 91.1119 106.176 92.2602 105.76 93.329C105.359 94.352 104.781 95.2839 104.059 96.0759Z" fill="#126AB4"></path> <path d="M58.4743 100.958C58.42 100.612 58.3027 100.28 58.1292 99.9833C57.9556 99.6862 57.7292 99.4291 57.4631 99.2268L53.8998 96.4337C54.0121 96.1913 54.2475 95.7354 54.3492 95.4815C55.0339 93.7289 55.3866 91.8462 55.3866 89.9444C55.3866 88.0425 55.0339 86.1598 54.3492 84.4072C53.0219 81.0178 50.5291 78.3145 47.3938 76.8647C45.7736 76.126 44.0325 75.7455 42.2736 75.7455C40.5146 75.7455 38.7735 76.126 37.1533 76.8647C35.584 77.5677 34.1518 78.5839 32.9319 79.8598C31.7286 81.1541 30.7676 82.6862 30.1016 84.3726C29.4169 86.1252 29.0642 88.0079 29.0642 89.9097C29.0642 91.8116 29.4169 93.6942 30.1016 95.4469C31.4497 98.8492 33.9648 101.558 37.1212 103.007C38.7414 103.745 40.4825 104.126 42.2414 104.126C44.0004 104.126 45.7415 103.745 47.3617 103.007C48.6048 102.429 49.7594 101.65 50.7859 100.698L54.4936 103.584C54.8991 103.9 55.3823 104.079 55.8821 104.099C56.3819 104.118 56.8759 103.978 57.3018 103.695C57.7278 103.412 58.0664 103 58.2751 102.51C58.4838 102.019 58.5531 101.473 58.4743 100.941V100.958ZM48.0037 96.0759C47.2637 96.8782 46.3884 97.5206 45.4249 97.9687C44.4194 98.4277 43.3386 98.6643 42.2468 98.6643C41.155 98.6643 40.0742 98.4277 39.0687 97.9687C38.1071 97.52 37.2337 96.8776 36.4952 96.0759C35.7671 95.2722 35.1846 94.3288 34.7778 93.2943C34.3555 92.2294 34.1406 91.0823 34.1464 89.9242C34.1392 88.7509 34.354 87.5884 34.7778 86.5078C35.5911 84.4253 37.1273 82.7684 39.058 81.8911C41.0947 80.9816 43.3829 80.9816 45.4195 81.8911C46.3797 82.3298 47.2533 82.9624 47.993 83.7551C48.7257 84.5514 49.3073 85.4943 49.7051 86.5309C50.1218 87.6154 50.3329 88.779 50.3258 89.953C50.3318 91.1119 50.1207 92.2602 49.7051 93.329C49.3034 94.352 48.7261 95.2839 48.0037 96.0759Z" fill="#126AB4"></path> <path d="M164.357 100.958C164.303 100.612 164.185 100.28 164.012 99.9834C163.838 99.6862 163.612 99.4291 163.346 99.2268L159.782 96.4337C159.895 96.1913 160.13 95.7354 160.232 95.4815C160.917 93.7289 161.269 91.8462 161.269 89.9444C161.269 88.0425 160.917 86.1599 160.232 84.4072C158.905 81.0178 156.412 78.3145 153.276 76.8647C151.656 76.126 149.915 75.7455 148.156 75.7455C146.397 75.7455 144.656 76.126 143.036 76.8647C141.475 77.5836 140.054 78.6134 138.847 79.9002C137.643 81.1945 136.682 82.7266 136.016 84.413C135.332 86.1656 134.979 88.0483 134.979 89.9501C134.979 91.852 135.332 93.7346 136.016 95.4873C137.364 98.8896 139.88 101.598 143.036 103.047C144.656 103.786 146.397 104.166 148.156 104.166C149.915 104.166 151.656 103.786 153.276 103.047C154.52 102.469 155.674 101.691 156.701 100.739L160.408 103.624C160.814 103.94 161.297 104.119 161.797 104.139C162.297 104.159 162.791 104.018 163.217 103.736C163.643 103.453 163.981 103.04 164.19 102.55C164.399 102.06 164.468 101.514 164.389 100.981L164.357 100.958ZM153.886 96.0759C153.146 96.8782 152.271 97.5206 151.308 97.9687C150.302 98.4277 149.221 98.6643 148.129 98.6643C147.038 98.6643 145.957 98.4277 144.951 97.9687C143.99 97.52 143.116 96.8776 142.378 96.0759C141.646 95.2732 141.06 94.3297 140.65 93.2943C140.228 92.2294 140.013 91.0823 140.018 89.9242C140.011 88.7509 140.226 87.5884 140.65 86.5078C141.463 84.4253 142.999 82.7684 144.93 81.8911C146.967 80.9816 149.255 80.9816 151.292 81.8911C152.252 82.3298 153.125 82.9624 153.865 83.7551C154.598 84.5514 155.179 85.4943 155.577 86.5309C155.994 87.6154 156.205 88.7791 156.198 89.953C156.204 91.1119 155.993 92.2602 155.577 93.329C155.179 94.351 154.605 95.283 153.886 96.0759Z" fill="#126AB4"></path> <path d="M313.887 88.0429C313.562 85.3031 312.514 82.7216 310.869 80.6052C309.223 78.4887 307.049 76.9263 304.605 76.1034C302.16 75.2806 299.548 75.2319 297.078 75.9633C294.609 76.6946 292.386 78.1752 290.674 80.2291C288.961 82.283 287.832 84.8239 287.419 87.5499C287.006 90.276 287.328 93.0725 288.345 95.6073C289.362 98.1421 291.033 100.309 293.159 101.849C295.284 103.39 297.775 104.241 300.335 104.299H300.688C304.433 104.299 307.451 102.989 309.853 100.3C310.106 100.025 310.303 99.6978 310.434 99.3375C310.565 98.9773 310.626 98.5919 310.613 98.2053C310.57 97.4104 310.244 96.664 309.703 96.122C308.714 95.0891 307.189 95.1929 306.087 96.3587C305.591 96.9081 305.034 97.3889 304.428 97.7898C303.385 98.4188 302.223 98.7816 301.03 98.8504C299.837 98.9192 298.645 98.6922 297.546 98.1868C296.447 97.6813 295.471 96.911 294.691 95.9348C293.911 94.9586 293.349 93.8027 293.048 92.5557H311.068C311.25 92.5557 311.426 92.5557 311.603 92.5557C311.923 92.5512 312.239 92.4784 312.534 92.3414C312.828 92.2045 313.094 92.0061 313.317 91.7578C313.54 91.5094 313.715 91.216 313.832 90.8944C313.949 90.5727 314.006 90.2293 314 89.8838C314.004 89.268 313.967 88.6527 313.887 88.0429ZM308.489 87.5235H292.973C292.973 84.6842 296.483 81.2967 299.779 80.9909C303.979 80.5985 307.916 83.5762 308.489 87.5235Z" fill="#126AB4"></path> <path d="M284.466 88.5161C284.256 86.2769 283.567 84.1208 282.453 82.218C281.339 80.3152 279.83 78.7177 278.046 77.5515C275.239 75.6751 271.889 74.9847 268.639 75.6129C265.389 76.2412 262.469 78.1438 260.441 80.9546C258.414 83.7654 257.422 87.2856 257.656 90.838C257.891 94.3903 259.335 97.7235 261.711 100.196C262.94 101.533 264.405 102.589 266.02 103.303C267.635 104.017 269.366 104.373 271.112 104.351C271.777 104.351 272.442 104.306 273.102 104.219C275.875 103.889 278.448 102.501 280.357 100.306C280.608 100.024 280.804 99.6912 280.933 99.3264C281.062 98.9616 281.122 98.5725 281.109 98.1822C281.096 97.7919 281.01 97.4084 280.857 97.0545C280.704 96.7006 280.487 96.3835 280.218 96.122C279.233 95.0948 277.714 95.1872 276.601 96.3529C276.088 96.9193 275.511 97.4137 274.884 97.8245C273.867 98.4165 272.742 98.7602 271.589 98.8311C270.436 98.902 269.282 98.6984 268.21 98.2347C267.138 97.771 266.173 97.0586 265.385 96.148C264.597 95.2374 264.003 94.1508 263.648 92.9654C263.617 92.8496 263.592 92.7321 263.573 92.6134V92.5268H277.484C278.934 92.5268 280.389 92.5268 281.844 92.5268C282.213 92.5598 282.583 92.5038 282.929 92.3629C283.275 92.2221 283.587 91.9999 283.843 91.7125C284.1 91.4251 284.293 91.0797 284.41 90.7015C284.527 90.3233 284.564 89.9217 284.519 89.526C284.519 89.2374 284.487 88.9489 284.461 88.6661L284.466 88.5161ZM279.019 87.5119H263.503C263.91 84.0898 267.372 81.0544 270.994 80.9678H271.17C275.007 80.9505 278.447 83.8417 279.019 87.5004V87.5119Z" fill="#126AB4"></path> <path d="M175.577 33.2602L180.461 26.9526C181.533 25.5819 182.31 23.9716 182.735 22.2378L188.776 15.9996L181.82 13.8124C180.742 11.5594 179.029 9.73331 176.927 8.59682C174.826 7.46033 172.444 7.07196 170.125 7.48757C167.806 7.90319 165.669 9.10136 164.021 10.9098C162.373 12.7182 161.299 15.0437 160.954 17.5519L145.395 0.799133L143.839 3.10747C140.689 7.7521 139.002 13.3624 139.023 19.1165C139.044 24.8706 140.773 30.4663 143.956 35.0838C144.358 35.6608 144.786 36.2379 145.23 36.7631L134.684 42.0838L119.002 49.9899L119.848 52.1597C120.581 54.0259 121.823 55.608 123.408 56.6967C124.994 57.7854 126.848 58.3294 128.726 58.2569C130.604 58.1843 132.418 57.4986 133.927 56.2904C135.436 55.0821 136.569 53.4083 137.177 51.4903C137.281 51.171 137.366 50.8478 137.434 50.5208C140.74 53.0473 144.595 54.6106 148.626 55.0594C152.656 55.5083 156.726 54.8276 160.441 53.083C164.482 58.0244 170.146 61.0778 176.236 61.5979C182.326 62.118 188.365 60.0642 193.077 55.8704L195.004 54.1391L175.577 33.2602ZM161.414 46.1176C159.714 42.7659 158.919 38.9674 159.119 35.153L167.144 31.1134L169.691 33.8546C168.722 39.1199 165.872 43.7629 161.757 46.7813C161.639 46.5447 161.527 46.3312 161.414 46.1176ZM167.23 14.3779C167.844 13.6948 168.579 13.1525 169.392 12.7836C170.204 12.4147 171.078 12.2268 171.96 12.2312H172.088C173.675 12.2652 175.197 12.9144 176.376 14.06C177.555 15.2057 178.312 16.771 178.509 18.4695C178.561 18.9231 178.573 19.381 178.546 19.8372C178.427 21.3085 177.885 22.7029 176.994 23.8248L172.388 29.7803L167.257 24.2115C166.611 23.5364 166.108 22.7197 165.78 21.8166C165.348 20.554 165.256 19.1851 165.515 17.8685C165.775 16.552 166.375 15.3417 167.246 14.3779H167.23ZM147.589 32.1579C145.255 28.771 143.87 24.7328 143.6 20.5225C143.33 16.3123 144.185 12.1068 146.064 8.40512L163.72 27.4143L149.537 34.5817C148.833 33.8263 148.182 33.0162 147.589 32.1579ZM132.908 49.9091C132.654 50.6955 132.227 51.4037 131.664 51.9728C131.1 52.542 130.417 52.955 129.673 53.1764C128.929 53.3977 128.146 53.4209 127.392 53.2438C126.637 53.0667 125.934 52.6947 125.343 52.1597L133.165 48.2125C133.168 48.7895 133.081 49.3631 132.908 49.9091ZM138.724 45.4251L154.577 37.421C154.74 41.2841 155.719 45.0561 157.439 48.4491C157.535 48.6395 157.642 48.8184 157.744 49.0261C154.563 50.3065 151.124 50.6477 147.78 50.0147C144.436 49.3816 141.31 47.7972 138.724 45.4251ZM185.057 55.3568C181.581 56.8366 177.777 57.1775 174.121 56.3368C170.466 55.4961 167.121 53.5112 164.507 50.6304C168.676 47.5022 171.791 42.9983 173.383 37.7961L173.469 37.8884L188.144 53.6717C187.164 54.3315 186.131 54.8954 185.057 55.3568Z" fill="#126AB4"></path> <path d="M174.604 19.4569C175.297 18.7087 175.297 17.4956 174.604 16.7474C173.91 15.9992 172.785 15.9992 172.092 16.7474C171.398 17.4956 171.398 18.7087 172.092 19.4569C172.785 20.2051 173.91 20.2052 174.604 19.4569Z" fill="#126AB4"></path> </svg> 